<svg width="420" height="260" viewBox="0 0 420 260" fill="none" xmlns="http://www.w3.org/2000/svg">
  <rect width="420" height="260" fill="#F7FAFE"/>
  <path d="M0 72H420" stroke="#D7E3F2" stroke-opacity="0.68"/>
  <path d="M0 144H420" stroke="#E6EEF8" stroke-opacity="0.72"/>
  <path d="M82 0V260" stroke="#E6EEF8" stroke-opacity="0.72"/>
  <path d="M164 0V260" stroke="#D7E3F2" stroke-opacity="0.48"/>
  <path d="M246 0V260" stroke="#E6EEF8" stroke-opacity="0.72"/>
  <path d="M328 0V260" stroke="#D7E3F2" stroke-opacity="0.48"/>
  <g opacity="0.74">
    <rect x="188" y="44" width="162" height="120" rx="18" fill="#FFFFFF" stroke="#C8DAF0"/>
    <rect x="208" y="66" width="50" height="44" rx="10" fill="#DBEAFE"/>
    <rect x="270" y="66" width="58" height="12" rx="6" fill="#D4E4F8"/>
    <rect x="270" y="94" width="42" height="10" rx="5" fill="#E6EEF8"/>
    <rect x="208" y="130" width="118" height="10" rx="5" fill="#E6EEF8"/>
  </g>
  <path d="M54 196C105 168 158 171 214 204C266 234 323 232 374 198" stroke="#A9C9EE" stroke-opacity="0.5" stroke-width="3" stroke-linecap="round"/>
  <path d="M38 46L86 94L38 142" stroke="#B7D1F2" stroke-opacity="0.48" stroke-width="2" stroke-linecap="round" stroke-linejoin="round"/>
</svg>
