<svg width="860" height="620" viewBox="0 0 860 620" fill="none" xmlns="http://www.w3.org/2000/svg">
  <defs>
    <linearGradient id="base" x1="80" y1="56" x2="720" y2="520" gradientUnits="userSpaceOnUse">
      <stop stop-color="#EFF7FF"/>
      <stop offset="0.52" stop-color="#DDEBFF"/>
      <stop offset="1" stop-color="#E5F7F3"/>
    </linearGradient>
    <linearGradient id="card" x1="178" y1="106" x2="658" y2="430" gradientUnits="userSpaceOnUse">
      <stop stop-color="#FFFFFF"/>
      <stop offset="1" stop-color="#F4F9FF"/>
    </linearGradient>
  </defs>
  <rect width="860" height="620" fill="#F1F7FF"/>
  <path d="M0 120H860" stroke="#C4DAF5" stroke-opacity="0.68"/>
  <path d="M0 302H860" stroke="#DCE8F7" stroke-opacity="0.8"/>
  <path d="M0 484H860" stroke="#C4DAF5" stroke-opacity="0.54"/>
  <path d="M132 0V620" stroke="#DCE8F7" stroke-opacity="0.76"/>
  <path d="M354 0V620" stroke="#C4DAF5" stroke-opacity="0.54"/>
  <path d="M606 0V620" stroke="#DCE8F7" stroke-opacity="0.76"/>
  <path d="M126 478C262 420 392 438 516 532C624 614 735 620 848 548" stroke="#88B7EF" stroke-opacity="0.5" stroke-width="6" stroke-linecap="round"/>
  <g opacity="0.98">
    <rect x="108" y="84" width="622" height="372" rx="34" fill="url(#base)" stroke="#B6D2F2"/>
    <rect x="158" y="132" width="312" height="224" rx="28" fill="url(#card)" stroke="#B6D2F2"/>
    <rect x="196" y="174" width="142" height="18" rx="9" fill="#B6D2F2"/>
    <rect x="196" y="218" width="226" height="14" rx="7" fill="#D7E5F7"/>
    <rect x="196" y="252" width="182" height="14" rx="7" fill="#D7E5F7"/>
    <rect x="196" y="286" width="238" height="14" rx="7" fill="#D7E5F7"/>
    <rect x="516" y="124" width="166" height="214" rx="28" fill="#FFFFFF" stroke="#B6D2F2"/>
    <rect x="548" y="160" width="46" height="58" rx="14" fill="#CFE1FF"/>
    <rect x="610" y="160" width="42" height="58" rx="14" fill="#DDF5F1"/>
    <rect x="548" y="238" width="104" height="62" rx="16" fill="#E8F1FC"/>
    <path d="M568 286L598 252L632 286H568Z" fill="#AFCBEF"/>
  </g>
  <g opacity="0.82">
    <rect x="402" y="376" width="292" height="132" rx="26" fill="#FFFFFF" stroke="#B6D2F2"/>
    <rect x="434" y="410" width="74" height="16" rx="8" fill="#B6D2F2"/>
    <rect x="434" y="450" width="214" height="13" rx="6.5" fill="#DDE8F7"/>
    <rect x="434" y="482" width="156" height="13" rx="6.5" fill="#DDE8F7"/>
  </g>
  <path d="M480 240C512 240 542 240 574 240" stroke="#75AAEC" stroke-opacity="0.76" stroke-width="5" stroke-linecap="round"/>
  <path d="M552 214L582 240L552 266" stroke="#75AAEC" stroke-opacity="0.76" stroke-width="5" stroke-linecap="round" stroke-linejoin="round"/>
</svg>
