<svg width="520" height="320" viewBox="0 0 520 320" fill="none" xmlns="http://www.w3.org/2000/svg">
  <defs>
    <linearGradient id="panel" x1="94" y1="34" x2="488" y2="284" gradientUnits="userSpaceOnUse">
      <stop stop-color="#E7F2FF"/>
      <stop offset="0.56" stop-color="#DCEBFF"/>
      <stop offset="1" stop-color="#E7F8F5"/>
    </linearGradient>
    <linearGradient id="screen" x1="190" y1="70" x2="420" y2="214" gradientUnits="userSpaceOnUse">
      <stop stop-color="#FFFFFF"/>
      <stop offset="1" stop-color="#F3F8FF"/>
    </linearGradient>
  </defs>
  <rect width="520" height="320" fill="#EEF6FF"/>
  <path d="M0 82H520" stroke="#BFD6F5" stroke-opacity="0.72"/>
  <path d="M0 176H520" stroke="#D5E5F7" stroke-opacity="0.78"/>
  <path d="M92 0V320" stroke="#D5E5F7" stroke-opacity="0.78"/>
  <path d="M198 0V320" stroke="#BFD6F5" stroke-opacity="0.58"/>
  <path d="M304 0V320" stroke="#D5E5F7" stroke-opacity="0.78"/>
  <path d="M410 0V320" stroke="#BFD6F5" stroke-opacity="0.58"/>
  <path d="M112 246C176 205 243 206 314 248C378 286 443 281 502 238" stroke="#80AEEB" stroke-opacity="0.58" stroke-width="5" stroke-linecap="round"/>
  <g opacity="0.96">
    <rect x="168" y="48" width="260" height="174" rx="28" fill="url(#panel)" stroke="#AFCBEF"/>
    <rect x="194" y="76" width="208" height="120" rx="20" fill="url(#screen)" stroke="#C5D8F1"/>
    <rect x="218" y="100" width="64" height="50" rx="12" fill="#CFE2FF"/>
    <rect x="298" y="100" width="78" height="14" rx="7" fill="#BFD6F5"/>
    <rect x="298" y="132" width="58" height="12" rx="6" fill="#DCE8F7"/>
    <rect x="218" y="168" width="148" height="12" rx="6" fill="#DCE8F7"/>
  </g>
  <g opacity="0.72">
    <rect x="352" y="164" width="112" height="92" rx="20" fill="#FFFFFF" stroke="#BED6F3"/>
    <rect x="374" y="184" width="32" height="28" rx="8" fill="#DDEBFF"/>
    <rect x="418" y="184" width="24" height="8" rx="4" fill="#C6DCF7"/>
    <rect x="418" y="204" width="30" height="8" rx="4" fill="#E2ECF8"/>
    <path d="M376 236L400 212L426 236H376Z" fill="#B6D3F4"/>
  </g>
  <path d="M54 66L110 122L54 178" stroke="#83B4EF" stroke-opacity="0.54" stroke-width="4" stroke-linecap="round" stroke-linejoin="round"/>
</svg>
