<svg width="2400" height="2200" viewBox="0 0 2400 2200" fill="none" xmlns="http://www.w3.org/2000/svg">
  <defs>
    <linearGradient id="wash" x1="292" y1="58" x2="2050" y2="1920" gradientUnits="userSpaceOnUse">
      <stop stop-color="#FAFDFF"/>
      <stop offset="0.36" stop-color="#EEF6FF"/>
      <stop offset="0.7" stop-color="#F8FCFF"/>
      <stop offset="1" stop-color="#EEF8F6"/>
    </linearGradient>
    <linearGradient id="panel" x1="1600" y1="178" x2="2180" y2="558" gradientUnits="userSpaceOnUse">
      <stop stop-color="#FFFFFF"/>
      <stop offset="1" stop-color="#EAF4FF"/>
    </linearGradient>
    <linearGradient id="cyanPanel" x1="160" y1="1080" x2="720" y2="1470" gradientUnits="userSpaceOnUse">
      <stop stop-color="#FFFFFF"/>
      <stop offset="1" stop-color="#E9F9F6"/>
    </linearGradient>
  </defs>
  <rect width="2400" height="2200" fill="url(#wash)"/>
  <g opacity="0.78">
    <path d="M0 132H2400" stroke="#C9DDF5" stroke-opacity="0.56"/>
    <path d="M0 404H2400" stroke="#E0EAF7" stroke-opacity="0.82"/>
    <path d="M0 930H2400" stroke="#C9DDF5" stroke-opacity="0.5"/>
    <path d="M0 1478H2400" stroke="#E0EAF7" stroke-opacity="0.82"/>
    <path d="M244 0V2200" stroke="#DFEAF8" stroke-opacity="0.82"/>
    <path d="M790 0V2200" stroke="#CFE1F6" stroke-opacity="0.5"/>
    <path d="M1320 0V2200" stroke="#DFEAF8" stroke-opacity="0.76"/>
    <path d="M1840 0V2200" stroke="#CFE1F6" stroke-opacity="0.48"/>
    <path d="M2154 0V2200" stroke="#DFEAF8" stroke-opacity="0.82"/>
  </g>
  <path d="M2280 122C2036 260 1876 438 1806 656C1748 836 1630 960 1454 1028C1284 1094 1160 1208 1080 1370C988 1556 818 1692 570 1778" stroke="#8DBBEE" stroke-opacity="0.36" stroke-width="6" stroke-linecap="round"/>
  <path d="M-20 564C216 430 462 438 718 588C934 715 1136 736 1328 651C1516 568 1718 612 1934 782C2090 904 2252 944 2420 892" stroke="#B5D3F5" stroke-opacity="0.58" stroke-width="5" stroke-linecap="round"/>
  <path d="M-10 1958C292 1818 622 1844 976 2022C1310 2190 1690 2146 2410 1878" stroke="#B5D3F5" stroke-opacity="0.56" stroke-width="5" stroke-linecap="round"/>
  <g opacity="0.78">
    <rect x="1540" y="192" width="462" height="296" rx="36" fill="url(#panel)" stroke="#BBD4F2"/>
    <rect x="1588" y="242" width="168" height="136" rx="24" fill="#D8E9FF"/>
    <rect x="1786" y="250" width="144" height="20" rx="10" fill="#BBD4F2"/>
    <rect x="1786" y="292" width="108" height="14" rx="7" fill="#DCE8F7"/>
    <rect x="1786" y="326" width="132" height="14" rx="7" fill="#DCE8F7"/>
    <rect x="1588" y="420" width="320" height="18" rx="9" fill="#D2E2F6"/>
  </g>
  <g opacity="0.7">
    <rect x="188" y="1118" width="424" height="282" rx="34" fill="url(#cyanPanel)" stroke="#BBD4F2"/>
    <rect x="232" y="1166" width="130" height="96" rx="20" fill="#DDF6F2"/>
    <rect x="392" y="1176" width="148" height="18" rx="9" fill="#BBD4F2"/>
    <rect x="392" y="1218" width="108" height="14" rx="7" fill="#DCE8F7"/>
    <rect x="232" y="1312" width="292" height="16" rx="8" fill="#D2E2F6"/>
    <rect x="232" y="1352" width="216" height="16" rx="8" fill="#E4EEF9"/>
  </g>
  <g opacity="0.48">
    <rect x="1704" y="1220" width="392" height="270" rx="34" fill="#FFFFFF" fill-opacity="0.76" stroke="#BBD4F2"/>
    <path d="M1760 1282H2040" stroke="#AFCDEF" stroke-width="4"/>
    <path d="M1760 1354H2040" stroke="#D5E4F6" stroke-width="4"/>
    <path d="M1760 1426H2040" stroke="#D5E4F6" stroke-width="4"/>
    <path d="M1830 1240V1468" stroke="#D5E4F6" stroke-width="4"/>
    <path d="M1902 1240V1468" stroke="#D5E4F6" stroke-width="4"/>
    <path d="M1974 1240V1468" stroke="#D5E4F6" stroke-width="4"/>
  </g>
  <g opacity="0.45">
    <rect x="860" y="156" width="314" height="190" rx="32" fill="#FFFFFF" stroke="#CBE0F7"/>
    <rect x="900" y="202" width="92" height="70" rx="18" fill="#E5F2FF"/>
    <rect x="1028" y="210" width="92" height="16" rx="8" fill="#CBE0F7"/>
    <rect x="1028" y="248" width="68" height="12" rx="6" fill="#E4EEF9"/>
  </g>
</svg>
